<svg xmlns="http://www.w3.org/2000/svg" xmlns:xlink="http://www.w3.org/1999/xlink" width="500" zoomAndPan="magnify" viewBox="0 0 375 374.999991" height="500" preserveAspectRatio="xMidYMid meet" version="1.0"><path fill="#194a79" d="M 366.679688 115.792969 C 346.492188 231.585938 230.6875 330.382812 195.625 352.691406 C 161.625 375 129.753906 343.128906 118.066406 320.820312 C 105.316406 293.199219 66.003906 146.601562 55.382812 133.851562 C 45.820312 121.105469 13.945312 146.601562 13.945312 146.601562 L 0.132812 126.417969 C 0.132812 126.417969 62.820312 50.992188 110.628906 42.492188 C 160.5625 31.871094 160.5625 120.042969 173.3125 167.847656 C 185 215.652344 192.4375 242.210938 202 242.210938 C 212.625 242.210938 232.8125 216.714844 254.058594 175.285156 C 276.371094 135.976562 252.996094 99.859375 210.5 125.355469 C 228.5625 24.433594 386.867188 0 366.679688 115.792969 Z M 366.679688 115.792969 " fill-opacity="1" fill-rule="nonzero"/></svg>