<?xml version="1.0" encoding="utf-8"?>
<!-- Generator: Adobe Illustrator 22.0.0, SVG Export Plug-In . SVG Version: 6.00 Build 0)  -->
<svg version="1.1" id="Layer_1" xmlns="http://www.w3.org/2000/svg" xmlns:xlink="http://www.w3.org/1999/xlink" x="0px" y="0px"
	 viewBox="0 0 76 76" style="enable-background:new 0 0 76 76;" xml:space="preserve">
<path d="M38,2C18.2,2,2,18.2,2,38s16.2,36,36,36s36-16.2,36-36S57.8,2,38,2z M38,8c16.6,0,30,13.4,30,30c0,15.1-11.1,27.5-25.5,29.6
	V46.7H51l1.3-8.7h-9.9v-4.7c0-3.6,1.2-6.8,4.6-6.8h5.4V19c-1-0.1-3-0.4-6.8-0.4c-7.9,0-12.6,4.2-12.6,13.8v5.8h-8.2v8.7h8.2v20.8
	C18.8,65.2,8,52.9,8,38C8,21.4,21.4,8,38,8z"/>
</svg>
