<svg xmlns="http://www.w3.org/2000/svg" viewBox="0 0 36.99 27.78"><defs><style>.cls-1{fill:#fff;}</style></defs><title>Asset 1</title><g id="Layer_2" data-name="Layer 2"><g id="Layer_1-2" data-name="Layer 1"><path class="cls-1" d="M18.51,16.23H2.79c-1.58,0-2.55-.69-2.75-1.91-.26-1.59.83-2.74,2.67-2.74h31c.28,0,.57,0,.86,0A2.32,2.32,0,0,1,37,13.85a2.28,2.28,0,0,1-2.43,2.36c-2.78,0-5.56,0-8.35,0Z"/><path class="cls-1" d="M18.56,23.17c5.28,0,10.56,0,15.84,0a2.31,2.31,0,1,1,0,4.6c-5.92,0-11.85,0-17.78,0h-14A2.38,2.38,0,0,1,0,25.86c-.23-1.56.82-2.68,2.59-2.69H18.56Z"/><path class="cls-1" d="M18.44,4.62H2.5c-1,0-1.9-.3-2.19-1.24A3.47,3.47,0,0,1,.39,1.13C.79.18,1.77,0,2.78,0c8,0,16,0,24,0H34c2,0,3,.83,3,2.34s-1,2.27-2.93,2.27Z"/></g></g></svg>