<svg xmlns="http://www.w3.org/2000/svg" viewBox="0 0 45.12 32.72"><defs><style>.cls-1{fill:#fff;}</style></defs><title>Asset 4</title><g id="Layer_2" data-name="Layer 2"><g id="Layer_1-2" data-name="Layer 1"><path class="cls-1" d="M28.37,22h-.21a5.3,5.3,0,0,0-2.1-4.51,5.57,5.57,0,0,0-2.1-1l0-.21A5.6,5.6,0,0,1,28.37,22Z"/><path class="cls-1" d="M0,18.28V4H9.05V9.72ZM1.13,5.1V15.65L7.91,9.23V5.1Z"/><path class="cls-1" d="M8.26,14.48l1,.52,2.6-5H14.7v4.71h1.13V0ZM12.45,8.9,14.7,4.6V8.9Z"/><polygon class="cls-1" points="26.15 16.41 19.36 4.45 19.36 14.74 18.23 14.74 18.23 0.16 25.02 12.13 25.02 2.8 26.15 2.8 26.15 16.41"/><polygon class="cls-1" points="29.97 32.72 29.17 31.92 35.42 25.74 28.27 25.74 34.67 18.9 35.49 19.67 30.87 24.61 38.17 24.61 29.97 32.72"/><polygon class="cls-1" points="37.2 29.64 36.37 28.86 42.51 22.32 35.28 22.32 40.06 17.54 40.86 18.34 38.01 21.19 45.12 21.19 37.2 29.64"/><path class="cls-1" d="M22.63,28.32a6.31,6.31,0,0,1,0-12.61,4.1,4.1,0,0,1,.5,0L23,16.85h-.41a5.18,5.18,0,0,0,0,10.35,5,5,0,0,0,4.94-4.35l1.12.18A6.16,6.16,0,0,1,22.63,28.32Z"/></g></g></svg>